<svg width="24" height="24" viewBox="0 0 24 24" fill="none" xmlns="http://www.w3.org/2000/svg">
<g id="Header / star ">
<path id="Vector" d="M21.2208 7.40331L14.9517 6.82187L12.4614 1.03921C12.287 0.634308 11.7129 0.634308 11.5386 1.03921L9.0483 6.82182L2.77918 7.40331C2.34019 7.44399 2.16282 7.98999 2.49399 8.28095L7.22406 12.4362L5.83979 18.5782C5.74286 19.0083 6.20734 19.3457 6.58637 19.1207L12 15.9062L17.4136 19.1207C17.7927 19.3458 18.2571 19.0083 18.1602 18.5782L16.7758 12.4362L21.506 8.28095C21.8371 7.98999 21.6597 7.44399 21.2208 7.40331Z" fill="#FFDC64"/>
<path id="Vector_2" d="M13.3669 3.14203L12.4613 1.03921C12.2869 0.634308 11.7129 0.634308 11.5385 1.03921L9.04825 6.82182L2.77918 7.40331C2.34019 7.44399 2.16282 7.99 2.49399 8.28095L7.22406 12.4362L5.83979 18.5782C5.74286 19.0083 6.20734 19.3457 6.58637 19.1207L7.30689 18.6928C8.4881 11.0466 11.8088 5.43366 13.3669 3.14203Z" fill="#FFC850"/>
</g>
</svg>
